<svg width="400" height="400" viewBox="0 0 400 400" fill="none" xmlns="http://www.w3.org/2000/svg">
<path d="M20.3597 34.7334L21.2507 35.1874L21.2507 35.1874L20.3597 34.7334ZM20.8009 367.324L21.508 368.032L21.508 368.032L20.8009 367.324ZM377.329 295.987L376.875 295.096L376.875 295.096L377.329 295.987ZM378.64 294.676L377.749 294.222L377.749 294.222L378.64 294.676ZM378.64 34.7334L377.749 35.1874L377.749 35.1874L378.64 34.7334ZM377.329 33.4223L377.783 32.5313L377.783 32.5313L377.329 33.4223ZM21.6707 33.4223L22.1247 34.3133L22.1247 34.3133L21.6707 33.4223ZM91.5185 296.607L90.8114 295.9L91.5185 296.607ZM21.0327 37.8953C21.0327 37.0387 21.0335 36.4565 21.0703 36.0064C21.1061 35.568 21.171 35.3438 21.2507 35.1874L19.4687 34.2794C19.2214 34.7647 19.1228 35.2814 19.0769 35.8435C19.0319 36.3939 19.0327 37.0718 19.0327 37.8953H21.0327ZM21.0327 176.661V37.8953H19.0327V176.661H21.0327ZM19.0327 176.661V296.306H21.0327V176.661H19.0327ZM19.0327 296.306V296.314H21.0327V296.306H19.0327ZM19.0327 296.314V367.006H21.0327V296.314H19.0327ZM19.0327 367.006C19.0327 368.298 20.5946 368.945 21.508 368.032L20.0938 366.617C20.4403 366.271 21.0327 366.516 21.0327 367.006H19.0327ZM21.508 368.032L92.2256 297.314L90.8114 295.9L20.0938 366.617L21.508 368.032ZM374.167 295.314H92.2256V297.314H374.167V295.314ZM376.875 295.096C376.719 295.176 376.495 295.241 376.056 295.276C375.606 295.313 375.024 295.314 374.167 295.314V297.314C374.991 297.314 375.669 297.315 376.219 297.27C376.781 297.224 377.298 297.125 377.783 296.878L376.875 295.096ZM377.749 294.222C377.557 294.598 377.252 294.904 376.875 295.096L377.783 296.878C378.536 296.495 379.148 295.883 379.531 295.13L377.749 294.222ZM377.967 291.514C377.967 292.371 377.966 292.953 377.93 293.403C377.894 293.841 377.829 294.066 377.749 294.222L379.531 295.13C379.779 294.645 379.877 294.128 379.923 293.566C379.968 293.015 379.967 292.338 379.967 291.514H377.967ZM377.967 37.8953V291.514H379.967V37.8953H377.967ZM377.749 35.1874C377.829 35.3438 377.894 35.568 377.93 36.0064C377.966 36.4565 377.967 37.0388 377.967 37.8953H379.967C379.967 37.0718 379.968 36.3939 379.923 35.8435C379.877 35.2814 379.779 34.7647 379.531 34.2794L377.749 35.1874ZM376.875 34.3133C377.252 34.5051 377.557 34.811 377.749 35.1874L379.531 34.2794C379.148 33.5267 378.536 32.9148 377.783 32.5313L376.875 34.3133ZM374.167 34.0953C375.024 34.0953 375.606 34.0961 376.056 34.1329C376.495 34.1687 376.719 34.2336 376.875 34.3133L377.783 32.5313C377.298 32.284 376.781 32.1855 376.219 32.1395C375.669 32.0946 374.991 32.0953 374.167 32.0953V34.0953ZM24.8327 34.0953H374.167V32.0953H24.8327V34.0953ZM22.1247 34.3133C22.2811 34.2336 22.5053 34.1687 22.9438 34.1329C23.3938 34.0961 23.9761 34.0953 24.8327 34.0953V32.0953C24.0091 32.0953 23.3313 32.0946 22.7809 32.1395C22.2188 32.1855 21.7021 32.284 21.2168 32.5313L22.1247 34.3133ZM21.2507 35.1874C21.4424 34.811 21.7484 34.5051 22.1247 34.3133L21.2168 32.5313C20.4641 32.9148 19.8522 33.5267 19.4687 34.2794L21.2507 35.1874ZM92.2256 297.314L92.2256 297.314V295.314C91.6952 295.314 91.1865 295.525 90.8114 295.9L92.2256 297.314Z" fill="#11111B"/>
</svg>
