<svg width="400" height="400" viewBox="0 0 400 400" fill="none" xmlns="http://www.w3.org/2000/svg">
<path d="M159.542 86.6311C176.687 45.5437 185.259 25 200 25C214.741 25 223.313 45.5437 240.458 86.6311L241.256 88.5444C250.942 111.757 255.785 123.363 265.655 130.417C275.525 137.472 288.482 138.587 314.395 140.818L319.08 141.221C361.49 144.873 382.695 146.698 387.232 159.667C391.77 172.636 376.022 186.409 344.526 213.955L334.015 223.148C318.071 237.092 310.099 244.064 306.384 253.202C305.69 254.907 305.114 256.653 304.659 258.43C302.216 267.956 304.551 278.071 309.22 298.299L310.673 304.596C319.253 341.772 323.543 360.361 316.053 368.378C313.254 371.374 309.616 373.531 305.574 374.591C294.759 377.428 279.405 365.401 248.696 341.346C228.531 325.55 218.449 317.652 206.873 315.875C202.32 315.177 197.68 315.177 193.127 315.875C181.551 317.652 171.469 325.55 151.304 341.346C120.595 365.401 105.241 377.428 94.4255 374.591C90.3842 373.531 86.7463 371.374 83.9472 368.378C76.4565 360.361 80.7467 341.772 89.3271 304.596L90.7803 298.299C95.4492 278.071 97.7836 267.956 95.3413 258.43C94.8857 256.653 94.3095 254.907 93.6164 253.202C89.9008 244.064 81.929 237.092 65.9853 223.148L55.4737 213.955C23.9781 186.409 8.23025 172.636 12.7676 159.667C17.305 146.698 38.5101 144.873 80.9204 141.221L85.6051 140.818C111.518 138.587 124.475 137.472 134.345 130.417C144.215 123.363 149.058 111.757 158.744 88.5443L159.542 86.6311Z" stroke="#11111B" stroke-width="2"/>
</svg>
